<?xml version="1.0" encoding="UTF-8"?>
<svg class="svg-inline--fa fa-camera fa-w-16" width="512" height="512" aria-hidden="true" data-icon="camera" data-prefix="fas" focusable="false" role="img" version="1.1" viewBox="0 0 512 512" xmlns="http://www.w3.org/2000/svg">
 <g transform="matrix(1.7837 0 0 1.7837 -657.24 -711.97)">
  <path d="m512 401.52a110.48 110.48 0 0 0-110.48 110.48 110.48 110.48 0 0 0 67.711 101.66l42.516 70.191 43.668-70.434a110.48 110.48 0 0 0 67.062-101.42 110.48 110.48 0 0 0-110.48-110.48z" fill="#176bc0" fill-rule="evenodd" stroke="#000" stroke-linejoin="round" stroke-width=".56064"/>
  <path d="m569.68 486.76v64.895c0 5.9713-4.8446 10.816-10.816 10.816h-93.738c-5.9713 0-10.816-4.8446-10.816-10.816v-64.895c0-5.9713 4.8446-10.816 10.816-10.816h19.829l2.7716-7.4134c1.5773-4.2137 5.6108-7.0078 10.117-7.0078h28.279c4.5066 0 8.5401 2.7941 10.117 7.0078l2.7941 7.4134h19.829c5.9713 0 10.816 4.8446 10.816 10.816zm-30.645 32.448c0-14.917-12.123-27.04-27.04-27.04s-27.04 12.123-27.04 27.04 12.123 27.04 27.04 27.04 27.04-12.123 27.04-27.04zm-7.2106 0c0 10.929-8.9006 19.829-19.829 19.829s-19.829-8.9006-19.829-19.829 8.9006-19.829 19.829-19.829 19.829 8.9006 19.829 19.829z" fill="#fff" stroke-width=".22533"/>
 </g>
</svg>
