<svg width="1em" height="1em" enable-background="new 0 0 442.354 442.354" version="1.1" viewBox="0 0 442.354 442.354" xml:space="preserve" xmlns="http://www.w3.org/2000/svg">
	<g fill="#fff">
		<path d="m316.77 4.888l-170.28 170.28c-3.117 3.117-4.817 7.367-5.1 11.9l-1.133 86.983c0 4.533 1.7 9.35 5.1 12.467 3.117 3.117 7.65 5.667 11.9 5.667h0.283l84.15-1.7c4.533 0 8.783-2.55 11.9-5.667l171.7-171.7c6.517-6.517 6.517-17.283 0-24.083l-84.15-84.15c-7.083-6.517-17.85-6.517-24.366 0zm-82.734 251.03l-59.5 0.85 0.85-62.333 86.7-86.7 59.783 60.633-87.833 87.55zm111.92-111.92l-59.783-60.633 42.5-42.5 60.067 60.067-42.784 43.066z"/>
		<path d="m199.18 54.188c9.35 0 17-7.65 17-17s-7.65-17-17-17h-170c-9.35 0-17 7.65-17 17v388.17c0 9.35 7.65 17 17 17h317.33c9.35 0 17-7.65 17-17v-158.67c0-9.35-7.65-17-17-17s-17 7.65-17 17v141.67h-283.33v-354.17h153z"/>
	</g>
</svg>