<svg width="1em" height="1em" class="svg-icon icon-download" enable-background="new 0 0 439.167 439.167" version="1.1" viewBox="0 0 439.167 439.167" xml:space="preserve" xmlns="http://www.w3.org/2000/svg">
	<g fill="#fff">
		<path d="m36.833 439.17h365.5c9.35 0 17-7.65 17-17v-153c0-9.35-7.65-17-17-17s-17 7.65-17 17v136h-331.5v-136c0-9.35-7.65-17-17-17s-17 7.65-17 17v153c0 9.35 7.65 17 17 17z"/>
		<path d="m221 0c-9.35 0-17 7.65-17 17v258.97l-107.95-100.3c-6.8-6.517-17.567-5.95-24.083 0.85-6.517 6.8-5.95 17.567 0.85 24.083l136 126.08c1.7 1.7 3.967 2.833 6.233 3.683 1.983 0.567 3.967 1.133 5.95 1.133 5.95 0 11.05-3.117 14.167-7.65l134.02-123.25c6.8-6.233 7.367-17 1.133-24.083-6.233-6.8-17-7.367-24.083-1.133l-108.23 99.733v-258.12c0-9.35-7.65-17-17-17z"/>
	</g>
</svg>