<svg width="1em" height="1em" class="svg-icon icon-edit" enable-background="new 0 0 430.207 430.207" version="1.1" viewBox="0 0 430.207 430.207" xml:space="preserve" xmlns="http://www.w3.org/2000/svg">
    <path d="m270.6 4.924l-263.22 263.22c-3.117 3.117-4.817 7.367-5.1 11.617l-1.984 134.02c0 4.533 1.7 8.783 5.1 11.9 3.117 3.117 7.65 4.533 11.9 4.533h0.283l130.05-1.133c4.533 0 8.783-1.417 11.9-4.533l265.48-265.48c6.517-6.517 6.517-17.283 0-24.083l-130.33-130.33c-6.8-6.233-17.567-6.233-24.084 0.284zm-130.33 390.72l-105.68 1.417 1.7-109.93 175.67-175.67 106.25 106.25-177.93 177.93zm201.73-201.73l-105.97-106.25 46.75-46.75 105.97 106.25-46.751 46.75z" fill="#fff"/>
</svg>