<svg width="1em" height="1em" class="svg-icon icon-projects" enable-background="new 0 0 470.333 470.333" version="1.1" viewBox="0 0 470.333 470.333" xml:space="preserve" xmlns="http://www.w3.org/2000/svg">
    <path d="m333.48 0h-194.65c-9.35 0-17 7.65-17 17v73.667h-73.666c-9.35 0-17 7.65-17 17v345.67c0 9.35 7.65 17 17 17h286.17c9.35 0 17-7.65 17-17v-76.5h70.833c9.35 0 17-7.65 17-17v-253.58c0-4.533-1.7-8.783-4.817-11.9l-88.683-89.25c-3.117-3.4-7.65-5.1-12.184-5.1zm-16.15 436.33h-252.17v-311.67h56.667v235.17c0 9.35 7.65 17 17 17h178.5v59.499zm-161.5-93.5v-308.83h147.33v96.333c0 9.35 7.65 17 17 17h85v195.5h-249.33zm249.33-229.5h-68v-68.566l68 68.566z" fill="#fff"/>
</svg>