<svg width="1em" height="1em" enable-background="new 0 0 419.617 419.617" version="1.1" viewBox="0 0 419.617 419.617" xml:space="preserve" xmlns="http://www.w3.org/2000/svg">
    <path d="m48.592 402.62c0 9.35 7.65 17 17 17h288.43c9.35 0 17-7.65 17-17 0-94.067-42.5-174.82-102.28-207.12 28.9-18.983 47.883-51.85 47.883-88.967 0-58.65-47.883-106.53-106.53-106.53s-106.82 47.6-106.82 106.53c0 37.117 18.983 69.7 47.883 88.967-60.066 32.3-102.57 113.05-102.57 207.12zm161.22-368.62c39.95 0 72.533 32.583 72.533 72.533s-32.583 72.533-72.533 72.533-72.533-32.583-72.533-72.533 32.583-72.533 72.533-72.533zm0 179.92c66.3 0 120.7 75.65 126.65 171.7h-253.3c5.95-96.05 60.35-171.7 126.65-171.7z" fill="#fff"/>
</svg>