<svg width="1em" height="1em" class="svg-icon icon-view" enable-background="new 0 0 482.979 482.979" version="1.1" viewBox="0 0 482.979 482.979" xml:space="preserve" xmlns="http://www.w3.org/2000/svg">
    <path d="m56.208 318.7c34.85 34.283 95.2 74.8 185.3 74.8s150.45-40.8 185.3-74.8c37.683-36.833 53.833-73.95 54.683-75.367 1.983-4.25 1.983-9.35 0-13.6-0.567-1.417-15.867-36.267-53.267-70.833-34.283-31.733-94.917-69.417-188.42-69.417s-153 37.967-186.72 69.7c-36.833 34.567-51.283 69.417-51.85 71.117-1.7 4.25-1.7 9.067 0.283 13.033 0.569 1.417 17.002 38.534 54.685 75.367zm182.75-194.08c45.617 0 82.733 37.117 82.733 82.733s-37.117 82.733-82.733 82.733-82.733-37.117-82.733-82.733c0-45.617 37.117-82.733 82.733-82.733zm-96.05 16.433c-13.033 18.7-20.683 41.65-20.683 66.3 0 64.317 52.417 116.73 116.73 116.73s116.73-52.417 116.73-116.73c0-24.933-7.933-47.883-21.25-66.867 69.133 26.633 102 77.633 111.92 96.333-6.233 11.333-20.683 35.417-44.767 58.933-43.917 42.783-97.75 64.317-160.37 64.317s-116.45-22.1-160.37-64.6c-24.367-23.8-38.817-47.883-45.05-59.217 9.351-18.132 39.951-68.282 107.1-95.199z" fill="#fff"/>
</svg>